<svg width="207" height="202" viewBox="0 0 207 202" fill="none" xmlns="http://www.w3.org/2000/svg">
<path d="M97.6297 5.31938C99.2397 27.0694 99.7497 48.8694 99.1597 70.6694C99.0197 75.8694 108.62 73.1994 108.75 68.4294C109.34 46.6294 108.82 24.8294 107.22 3.07938C106.83 -2.22062 97.2797 0.539383 97.6297 5.31938Z" fill="black"/>
<path d="M100.17 138.899C103.5 158.059 102.47 178.319 103 197.709C103.15 203.079 112.98 202.379 112.85 197.679C112.57 187.419 112.29 177.169 112.01 166.909C111.73 156.649 111.69 146.769 109.96 136.839C109.11 131.939 99.3096 133.949 100.17 138.899Z" fill="black"/>
<path d="M142.49 109.119C162.57 108.519 182.65 107.909 202.74 107.309C209.01 107.119 207.97 99.6793 201.82 99.8693C181.74 100.469 161.66 101.079 141.57 101.679C135.3 101.869 136.34 109.309 142.49 109.119Z" fill="black"/>
<path d="M64.4497 100.329C54.6997 100.289 44.9397 100.259 35.1897 100.219C30.6397 100.199 26.0896 100.189 21.5296 100.169L13.7297 100.139C12.7297 100.139 8.01968 100.519 7.93968 100.479L10.2897 105.769L10.4197 105.529L3.82969 106.679L4.02964 106.749L5.67967 99.7094H5.61967C7.39967 101.359 9.17964 103.009 10.9596 104.669V104.649C7.99963 104.859 5.01966 105.079 2.04966 105.289L2.13969 105.409L5.70963 99.8094H5.55967C6.77967 100.229 7.99965 100.639 9.22965 101.059L9.10966 100.959L6.38969 107.359H6.53965C13.0697 107.229 11.3296 99.5994 5.59965 99.7094H5.44969C1.52969 99.7894 -0.470346 103.349 2.72965 106.119C3.74965 106.999 5.32966 107.469 6.66966 107.469C9.85966 107.459 12.4697 104.849 10.2397 101.869L10.1496 101.749C8.15964 99.0894 2.33966 98.7294 1.23966 102.389V102.409C0.319664 105.429 4.34968 107.209 6.56968 107.369H6.62968C11.2197 107.709 12.7196 101.969 8.27964 100.329L8.07969 100.259C6.13969 99.5394 2.70966 99.1194 1.48966 101.409L1.35966 101.649C0.229659 103.759 1.59963 106.069 3.70963 106.939C7.62963 108.539 12.4697 107.799 16.6297 107.819C22.1597 107.839 27.6896 107.859 33.2096 107.879C43.9396 107.919 54.6696 107.959 65.3996 107.999C71.9396 108.019 70.1696 100.369 64.4596 100.349L64.4497 100.329Z" fill="black"/>
<path d="M41.2297 49.3795C47.3397 57.6895 57.3797 61.6195 63.6197 69.6995C66.4797 73.4095 75.9197 70.8395 72.4097 66.2995C66.1297 58.1795 56.0597 54.1995 50.0197 45.9795C47.2397 42.1995 37.8197 44.7395 41.2297 49.3795Z" fill="black"/>
<path d="M154.98 52.5593C147.87 60.8593 139.74 68.0093 130.67 74.0893C126.64 76.7993 128.75 85.7793 133.93 82.2993C143.63 75.7893 152.3 67.9993 159.9 59.1193C163.27 55.1793 159.23 47.5793 154.97 52.5493L154.98 52.5593Z" fill="black"/>
<path d="M53.3097 164.059C58.4897 155.229 65.1097 147.399 73.1597 141.029C78.2597 136.999 71.3397 132.099 67.2297 135.349C57.9497 142.689 50.2197 151.339 44.2197 161.559C41.3097 166.509 50.9197 168.129 53.3097 164.059Z" fill="black"/>
<path d="M134.94 140.789C143.96 148.289 152.97 155.779 161.99 163.279C165.85 166.489 172.99 159.509 169.21 156.359C160.19 148.859 151.18 141.369 142.16 133.869C138.3 130.659 131.16 137.639 134.94 140.789Z" fill="black"/>
</svg>
