<svg width="207" height="202" viewBox="0 0 207 202" fill="none" xmlns="http://www.w3.org/2000/svg">
<path d="M96.6763 5.12212C98.2863 26.8721 98.7963 48.6721 98.2063 70.4721C98.0663 75.6721 107.666 73.0021 107.796 68.2321C108.386 46.4321 107.866 24.6321 106.266 2.88212C105.876 -2.41788 96.3263 0.342117 96.6763 5.12212Z" fill="white"/>
<path d="M99.2163 138.702C102.546 157.862 101.516 178.122 102.046 197.512C102.196 202.882 112.026 202.182 111.896 197.482C111.616 187.222 111.336 176.972 111.056 166.712C110.776 156.452 110.736 146.572 109.006 136.642C108.156 131.742 98.3563 133.752 99.2163 138.702Z" fill="white"/>
<path d="M141.536 108.922C161.616 108.322 181.696 107.712 201.786 107.112C208.056 106.922 207.016 99.482 200.866 99.672C180.786 100.272 160.706 100.882 140.616 101.482C134.346 101.672 135.386 109.112 141.536 108.922Z" fill="white"/>
<path d="M63.4963 100.132C53.7463 100.092 43.9863 100.062 34.2363 100.022C29.6863 100.002 25.1363 99.9921 20.5763 99.9721L12.7763 99.9421C11.7763 99.9421 7.06631 100.322 6.98631 100.282L9.33628 105.572L9.46629 105.332L2.87632 106.482L3.07627 106.552L4.7263 99.5121H4.6663C6.4463 101.162 8.22627 102.812 10.0063 104.472V104.452C7.04627 104.662 4.06629 104.882 1.09629 105.092L1.18632 105.212L4.75627 99.6121H4.6063C5.8263 100.032 7.04629 100.442 8.27629 100.862L8.15629 100.762L5.43632 107.162H5.58628C12.1163 107.032 10.3763 99.4021 4.64628 99.5121H4.49632C0.576317 99.5921 -1.42371 103.152 1.77629 105.922C2.79629 106.802 4.37629 107.272 5.71629 107.272C8.90629 107.262 11.5163 104.652 9.28629 101.672L9.19627 101.552C7.20627 98.8921 1.3863 98.5321 0.286295 102.192V102.212C-0.633705 105.232 3.39631 107.012 5.61631 107.172H5.67631C10.2663 107.512 11.7663 101.772 7.32627 100.132L7.12632 100.062C5.18632 99.3421 1.7563 98.9221 0.536295 101.212L0.40629 101.452C-0.72371 103.562 0.646266 105.872 2.75627 106.742C6.67627 108.342 11.5163 107.602 15.6763 107.622C21.2063 107.642 26.7363 107.662 32.2563 107.682C42.9863 107.722 53.7163 107.762 64.4463 107.802C70.9863 107.822 69.2163 100.172 63.5063 100.152L63.4963 100.132Z" fill="white"/>
<path d="M40.2763 49.1822C46.3863 57.4922 56.4263 61.4222 62.6663 69.5022C65.5263 73.2122 74.9663 70.6422 71.4563 66.1022C65.1763 57.9822 55.1063 54.0022 49.0663 45.7822C46.2863 42.0022 36.8663 44.5422 40.2763 49.1822Z" fill="white"/>
<path d="M154.026 52.3621C146.916 60.6621 138.786 67.8121 129.716 73.8921C125.686 76.6021 127.796 85.5821 132.976 82.1021C142.676 75.5921 151.346 67.8021 158.946 58.9221C162.316 54.9821 158.276 47.3821 154.016 52.3521L154.026 52.3621Z" fill="white"/>
<path d="M52.3563 163.862C57.5363 155.032 64.1563 147.202 72.2063 140.832C77.3063 136.802 70.3863 131.902 66.2763 135.152C56.9963 142.492 49.2663 151.142 43.2663 161.362C40.3563 166.312 49.9663 167.932 52.3563 163.862Z" fill="white"/>
<path d="M133.986 140.592C143.006 148.092 152.016 155.582 161.036 163.082C164.896 166.292 172.036 159.312 168.256 156.162C159.236 148.662 150.226 141.172 141.206 133.672C137.346 130.462 130.206 137.442 133.986 140.592Z" fill="white"/>
</svg>
